
        <svg xmlns="http://www.w3.org/2000/svg" xmlns:xlink="http://www.w3.org/1999/xlink" version="1.1" width="3202.4705255244808" height="858.4750282237958" viewBox="0 0 3202.4705255244808 858.4750282237958">
			
			<g transform="scale(10.123526276224007) translate(10, 10)">
				<defs id="SvgjsDefs2612"/><g id="SvgjsG2613" featureKey="nameLeftFeature-0" transform="matrix(2.3999998474121194,0,0,2.3999998474121194,0,3.0000030517576164)" fill="#fff"><path d="M7.82 20 l-1.52 0 l-0.02 -6.8 l-4.8 0 l0.02 6.8 l-1.5 0 l0 -15 l1.5 0 l-0.02 6.78 l4.8 0 l0.02 -6.78 l1.52 0 l0 15 z M17.08 20 l-7.5 0 l0 -15 l7.36 0 l0 1.52 l-5.98 0 l0 5.16 l5.94 0 l0 1.3 l-5.94 0 l0 5.5 l6.12 0 l0 1.52 z M26.48 20 l-1.56 0 l-5.2 -11.8 l0 11.8 l-1.44 0 l0 -15 l1.44 0 l5.22 11.3 l0.12 -11.3 l1.42 0 l0 15 z M36.540000000000006 20 l-1.56 0 l-5.2 -11.8 l0 11.8 l-1.44 0 l0 -15 l1.44 0 l5.22 11.3 l0.12 -11.3 l1.42 0 l0 15 z M47.02000000000001 20 l-1.4 0 l-1.06 -4.3 l-4.36 0 l-1.06 4.3 l-1.36 0 l4.06 -15 l1.14 0 z M44.220000000000006 14.36 l-1.78 -7.42 l-1.9 7.42 l3.68 0 z"/></g><g id="SvgjsG2614" featureKey="inlineSymbolFeature-0" transform="matrix(1.0123417878051026,0,0,1.0123417878051026,117.07586607212775,-5.061708939025513)" fill="#fff"><g xmlns="http://www.w3.org/2000/svg"><path d="M57.71,29.96c-1.28-1.22-3.03-1.87-4.81-1.78c-1.76,0.09-3.37,0.87-4.52,2.2c-1.99,2.32-3.01,5.18-3.91,8.17   c-0.65-2.01-1.01-4.27-1.01-6.4V13.62c0-1.07-0.43-2.11-1.18-2.84c-0.69-0.7-1.62-1.12-2.61-1.18c-1.01-0.07-1.98,0.29-2.77,0.97   V9.03C36.91,6.81,35.1,5,32.88,5s-4.03,1.81-4.03,4.03v1.48c-0.69-0.57-1.57-0.92-2.53-0.92c-2.22,0-4.03,1.81-4.03,4.03v2.91   c-0.69-0.56-1.57-0.92-2.53-0.92c-2.22,0-4.03,1.81-4.03,4.03v23.54c0,0,0,0.01,0,0.01v0.59c0,1.98,0.62,3.88,1.78,5.49   c0.98,1.35,1.5,2.94,1.5,4.61v7c0,0,0,0.01,0,0.01c0,0.01,0,0.01,0,0.01v7.35c0,0.41,0.34,0.75,0.75,0.75s0.75-0.34,0.75-0.75   V57.86c0.02,0.02,0.03,0.04,0.05,0.06c0.15,0.14,0.34,0.22,0.53,0.22c0.19,0,0.39-0.07,0.53-0.22c0.29-0.3,0.29-0.77-0.01-1.06   c-0.39-0.39-0.76-0.81-1.1-1.24v-1.73c0-1.98-0.62-3.88-1.78-5.49c-0.98-1.35-1.5-2.94-1.5-4.61v-0.33   c0.28-0.51,0.58-1.01,0.91-1.49c0.23-0.34,0.14-0.81-0.2-1.04c-0.22-0.15-0.48-0.15-0.7-0.06V30.85c1.72-1.25,3.34-1.25,5.06,0   v0.62c0,0.41,0.34,0.75,0.75,0.75s0.75-0.34,0.75-0.75v-4.56c1.72-1.25,3.34-1.25,5.06,0v0.84c0,0.41,0.34,0.75,0.75,0.75   s0.75-0.34,0.75-0.75v-2.15c1.72-1.25,3.34-1.25,5.05,0v2.52c0,0.41,0.34,0.75,0.75,0.75c0.1,0,0.2-0.02,0.29-0.06   c0.27-0.11,0.46-0.38,0.46-0.69v-1.2c1.72-1.25,3.34-1.25,5.06,0v3.65c-0.36,0.19-0.5,0.64-0.31,1c0.07,0.14,0.18,0.24,0.31,0.31   v0.28c0,2.49,0.45,5.12,1.27,7.42c0.19,0.54,0.69,0.88,1.28,0.88c0.45-0.01,0.84-0.25,1.07-0.6c1.91-0.44,3.56,0.47,5.03,2.76   c-0.01,0.11-0.03,0.21-0.05,0.32c-0.37,3.27-3.18,5.79-5.47,7.33c-1.96,1.32-3.14,3.48-3.14,5.8v0.67   c-0.18,0.19-0.36,0.37-0.55,0.55c-0.3,0.28-0.32,0.76-0.04,1.06c0.15,0.16,0.35,0.24,0.55,0.24c0.01,0,0.03-0.01,0.04-0.01v3.13   c0,0,0,0,0,0.01s0,0,0,0.01v6.53c0,0.41,0.34,0.75,0.75,0.75s0.75-0.34,0.75-0.75V57.16c0.02-0.1,0.02-0.2,0-0.3v-0.8   c0-1.81,0.92-3.51,2.47-4.55c2.56-1.72,5.7-4.57,6.12-8.41c0.65-5.8,3.71-8.96,5.48-10.33c0.43-0.34,0.7-0.85,0.73-1.4   C58.29,30.84,58.09,30.32,57.71,29.96z M37.79,11.77c0.5-0.48,1.14-0.71,1.79-0.68c0.62,0.04,1.2,0.3,1.64,0.74   c0.47,0.46,0.74,1.11,0.74,1.78v8.16c-1.67-0.89-3.39-0.89-5.06,0V13.8C36.91,13.04,37.23,12.3,37.79,11.77z M30.35,9.03   c0-1.39,1.13-2.53,2.53-2.53c1.39,0,2.53,1.13,2.53,2.53v4.77c0,0.01,0,0.02,0,0.02v6.64c-1.67-0.88-3.38-0.88-5.05,0v-6.85V9.03z    M23.79,13.62c0-1.39,1.13-2.53,2.53-2.53s2.53,1.13,2.53,2.53v8.16c-1.67-0.89-3.38-0.89-5.06,0v-2.14V13.62z M19.76,17.11   c1.39,0,2.53,1.13,2.53,2.53v6.07c-1.67-0.89-3.38-0.89-5.06,0v-6.07C17.24,18.24,18.37,17.11,19.76,17.11z M17.24,29.09v-1.62   c1.72-1.25,3.34-1.25,5.06,0v1.62C20.62,28.21,18.91,28.21,17.24,29.09z M23.79,25.16v-1.62c1.72-1.25,3.34-1.25,5.06,0v1.62   C27.18,24.27,25.46,24.27,23.79,25.16z M30.35,23.85v-1.62c1.72-1.25,3.34-1.25,5.05,0v1.62C33.73,22.96,32.02,22.96,30.35,23.85z    M36.91,25.16v-1.62c1.72-1.25,3.34-1.25,5.06,0v1.62C40.29,24.27,38.58,24.27,36.91,25.16z M46.14,38.25   c0.21-0.68,0.43-1.35,0.68-2c2-0.25,3.54,0.61,4.67,2.63c-0.19,0.54-0.35,1.1-0.5,1.7C49.33,38.64,47.6,38.15,46.14,38.25z    M56.62,31.58c-1.26,0.97-3.1,2.77-4.45,5.61c-1.22-1.65-2.82-2.49-4.72-2.49c0.55-1.21,1.21-2.34,2.06-3.34   c0.88-1.02,2.11-1.62,3.45-1.68c1.37-0.06,2.72,0.43,3.7,1.36c0.09,0.08,0.09,0.19,0.09,0.25C56.76,31.41,56.7,31.52,56.62,31.58z"/><path d="M39.43,19.23c0.41,0,0.75-0.34,0.75-0.75v-0.02c0-0.41-0.34-0.74-0.75-0.74s-0.75,0.35-0.75,0.76S39.02,19.23,39.43,19.23z   "/><path d="M51.24,33.55c0.12,0.08,0.26,0.11,0.39,0.11c0.25,0,0.49-0.12,0.63-0.34c0-0.01,0.01-0.02,0.02-0.03l-1.3-0.75   C50.78,32.89,50.9,33.34,51.24,33.55z"/><path d="M32.88,17.91c0.41,0,0.75-0.34,0.75-0.75v-0.02c0-0.41-0.34-0.74-0.75-0.74s-0.75,0.35-0.75,0.76S32.46,17.91,32.88,17.91z   "/><path d="M26.32,19.23c0.41,0,0.75-0.34,0.75-0.75v-0.02c0-0.41-0.34-0.74-0.75-0.74s-0.75,0.35-0.75,0.76S25.91,19.23,26.32,19.23z   "/><path d="M19.76,23.16c0.41,0,0.75-0.34,0.75-0.75v-0.02c0-0.41-0.34-0.74-0.75-0.74s-0.75,0.35-0.75,0.76S19.35,23.16,19.76,23.16z   "/><path d="M27.61,56.25c0.25-0.52,0.54-1.02,0.83-1.5c0.2,0.72,0.53,1.37,1.04,1.91c0.75,0.79,1.78,1.25,2.81,1.25   c0.25,0,0.5-0.03,0.74-0.08c0.39-0.09,0.64-0.46,0.58-0.85c-0.09-0.57-0.14-1.13-0.17-1.7c0.8,0.66,1.77,1.04,2.78,1.04   c1.06,0,2.03-0.41,2.73-1.15c0.28-0.29,0.27-0.75-0.01-1.04c-0.41-0.42-0.78-0.86-1.14-1.31c0.14,0.01,0.27,0.04,0.41,0.04   c2.08,0,3.8-1.38,4.07-3.28c0.06-0.4-0.21-0.77-0.6-0.84c-0.56-0.11-1.11-0.25-1.65-0.42c1.32-0.77,2.16-2.1,2.16-3.59   c0-0.59-0.13-1.14-0.39-1.64c-0.18-0.36-0.61-0.5-0.98-0.34c-0.52,0.24-1.05,0.44-1.6,0.62c0.28-0.6,0.43-1.23,0.43-1.88   c0-1.47-0.75-2.79-1.97-3.44c-0.35-0.19-0.79-0.06-1,0.28c-0.57,0.97-1.24,1.86-1.98,2.67c0-0.08,0-0.16,0-0.25   c-0.11-3.25-2.92-4.93-5.16-4.24c-0.38,0.12-0.61,0.52-0.51,0.9c0.14,0.55,0.25,1.11,0.33,1.67c-0.75-0.52-1.61-0.81-2.51-0.81   c-1.2,0-2.29,0.52-2.99,1.42c-0.25,0.32-0.2,0.77,0.1,1.03c0.44,0.37,0.84,0.77,1.23,1.19c-2.23,0.02-4.06,1.6-4.16,3.64   c-0.02,0.4,0.28,0.75,0.68,0.78c0.57,0.05,1.13,0.15,1.68,0.26c-1.15,0.81-1.86,2.06-1.86,3.43c0,0.71,0.18,1.36,0.54,1.93   c0.14,0.23,0.39,0.35,0.64,0.35c0.13,0,0.25-0.03,0.37-0.1c0.5-0.28,1.01-0.53,1.53-0.75c-0.18,0.49-0.27,1.01-0.27,1.53   c0,1.6,0.89,3.02,2.27,3.62c0.1,0.04,0.2,0.06,0.3,0.06C27.21,56.67,27.48,56.52,27.61,56.25z M27.07,47.11   c0-2.53,2.07-4.58,4.61-4.58c2.53,0,4.58,2.06,4.58,4.58c0,2.54-2.06,4.61-4.58,4.61C29.14,51.72,27.07,49.65,27.07,47.11z    M30.57,55.63c-0.58-0.61-0.87-1.46-0.81-2.39l0.03-0.37c0,0,0,0,0,0c0.6,0.2,1.24,0.31,1.9,0.31c0.06,0,0.11-0.01,0.17-0.01   c0.03,0.05,0.05,0.1,0.08,0.14c-0.06,1.02-0.03,2.05,0.09,3.08C31.49,56.32,30.97,56.05,30.57,55.63z M36.22,54.82   c-1.01,0-1.97-0.58-2.56-1.53l-0.21-0.34c0-0.02,0-0.03,0.01-0.05c0.66-0.2,1.26-0.52,1.8-0.92l0.2,0.1   c0.53,0.87,1.15,1.7,1.84,2.48C36.98,54.73,36.61,54.82,36.22,54.82z M38.21,51.35c-0.45,0-0.92-0.1-1.34-0.28l-0.36-0.16   c-0.02-0.03-0.03-0.06-0.05-0.1c0.4-0.52,0.71-1.1,0.93-1.72c0.09-0.01,0.18-0.02,0.27-0.04c0.93,0.41,1.91,0.73,2.92,0.97   C40.17,50.82,39.27,51.35,38.21,51.35z M40.68,44.72c0,1.05-0.77,2.34-2.47,2.7c-0.12,0.02-0.24,0.05-0.36,0.07   c-0.05-0.02-0.09-0.05-0.14-0.07c0.01-0.1,0.02-0.21,0.02-0.31c0-0.55-0.08-1.09-0.22-1.59c0.07-0.07,0.14-0.13,0.21-0.2   c1.02-0.21,2.01-0.5,2.95-0.88C40.68,44.53,40.68,44.63,40.68,44.72z M37.53,39.79c0.39,0.43,0.62,1.02,0.62,1.68   c0,0.78-0.32,1.55-0.91,2.18c-0.08,0.09-0.17,0.19-0.26,0.27c-0.05,0.01-0.11,0.02-0.16,0.03c-0.37-0.6-0.85-1.14-1.4-1.58   C36.19,41.59,36.91,40.74,37.53,39.79z M33.21,40.78c0,0.16,0,0.33,0,0.49c-0.49-0.13-1-0.2-1.52-0.2c-0.17,0-0.34,0.01-0.51,0.03   c-0.04-0.06-0.09-0.13-0.13-0.19c-0.02-1.02-0.14-2.04-0.35-3.06C31.9,37.89,33.15,38.99,33.21,40.78z M26.87,39.77   c0.93,0,1.82,0.48,2.46,1.32c0.08,0.1,0.15,0.2,0.22,0.3c0,0.03,0,0.05,0,0.08c-0.65,0.24-1.25,0.59-1.77,1.03   c-0.05-0.02-0.11-0.04-0.16-0.06c-0.6-0.82-1.28-1.59-2.04-2.3C25.95,39.9,26.39,39.77,26.87,39.77z M26.34,43.57   c0.12,0.04,0.23,0.08,0.35,0.12c0,0,0,0,0,0c-0.4,0.58-0.69,1.22-0.87,1.92c-0.04,0.01-0.08,0.02-0.12,0.03   c-0.97-0.33-1.97-0.56-2.99-0.71C23.19,43.75,24.68,43.04,26.34,43.57z M23.06,50.02c0-1.01,0.69-2.23,2.24-2.71   c0.11-0.03,0.22-0.07,0.33-0.1c0.01,0.74,0.16,1.44,0.41,2.09c-0.02,0.02-0.04,0.04-0.06,0.06c-0.98,0.29-1.95,0.67-2.87,1.14   C23.07,50.35,23.06,50.19,23.06,50.02z M26.64,54.85c-0.49-0.44-0.78-1.11-0.78-1.86c0-0.71,0.25-1.4,0.74-2.02   c0.07-0.09,0.14-0.18,0.21-0.26c0.42,0.57,0.93,1.06,1.52,1.46l-0.01,0.13C27.7,53.08,27.14,53.93,26.64,54.85z"/><path d="M31.69,50.17c1.67,0,3.03-1.37,3.03-3.06c0-1.67-1.36-3.03-3.03-3.03c-1.69,0-3.06,1.36-3.06,3.03   C28.63,48.8,30,50.17,31.69,50.17z M31.69,45.58c0.84,0,1.53,0.68,1.53,1.53c0,0.86-0.68,1.56-1.53,1.56   c-0.86,0-1.56-0.7-1.56-1.56C30.13,46.28,30.84,45.58,31.69,45.58z"/><path d="M39.36,62.85c-0.01,0-0.01,0-0.01,0c-0.37,0.18-0.53,0.63-0.35,1c0.13,0.27,0.4,0.43,0.68,0.43c0.1,0,0.21-0.03,0.32-0.07   c0.37-0.18,0.53-0.63,0.35-1C40.18,62.83,39.73,62.67,39.36,62.85z"/><path d="M32.82,64.5c-0.41,0.02-0.73,0.38-0.71,0.79c0.02,0.4,0.36,0.71,0.75,0.71c0.02,0,0.03,0,0.04,0   c0.42-0.02,0.73-0.38,0.71-0.79C33.59,64.79,33.23,64.48,32.82,64.5z"/><path d="M36.17,63.99c-0.4,0.1-0.65,0.51-0.54,0.91c0.08,0.34,0.39,0.57,0.72,0.57c0.06,0,0.12-0.01,0.19-0.02   c0.4-0.1,0.64-0.51,0.54-0.91C36.98,64.13,36.57,63.89,36.17,63.99z"/><path d="M29.43,64.38c-0.41-0.06-0.79,0.23-0.84,0.64c-0.05,0.41,0.23,0.79,0.65,0.84c0.03,0.01,0.06,0.01,0.09,0.01   c0.38,0,0.7-0.28,0.75-0.65C30.13,64.81,29.84,64.43,29.43,64.38z"/><path d="M23.03,62.25c-0.36-0.2-0.82-0.07-1.02,0.29c-0.21,0.36-0.08,0.82,0.28,1.02c0.12,0.06,0.25,0.09,0.37,0.09   c0.26,0,0.52-0.13,0.65-0.38C23.52,62.91,23.39,62.45,23.03,62.25z"/><path d="M26.13,63.62c-0.4-0.13-0.82,0.08-0.95,0.48c-0.13,0.39,0.08,0.81,0.48,0.94h-0.01c0.08,0.03,0.16,0.04,0.24,0.04   c0.32,0,0.61-0.2,0.71-0.51C26.73,64.17,26.52,63.75,26.13,63.62z"/><path d="M25.83,60.58c0.18-0.37,0.03-0.82-0.35-1c-0.56-0.27-1.12-0.59-1.65-0.94c-0.34-0.23-0.81-0.13-1.04,0.21   c-0.23,0.35-0.13,0.81,0.21,1.04c0.58,0.39,1.2,0.74,1.82,1.04c0.11,0.05,0.22,0.08,0.33,0.08C25.44,61,25.7,60.85,25.83,60.58z"/><path d="M35.64,61.31c-0.08-0.41-0.49-0.67-0.89-0.58c-0.62,0.13-1.25,0.22-1.88,0.27c-0.41,0.03-0.72,0.39-0.69,0.8   c0.03,0.39,0.36,0.69,0.75,0.69c0.02,0,0.04,0,0.06,0c0.7-0.05,1.4-0.15,2.08-0.29C35.46,62.11,35.72,61.71,35.64,61.31z"/><path d="M30.02,60.92c-0.63-0.08-1.25-0.2-1.87-0.36c-0.4-0.11-0.81,0.14-0.91,0.54s0.14,0.81,0.54,0.91   c0.67,0.18,1.37,0.31,2.06,0.39c0.03,0,0.06,0.01,0.09,0.01c0.37,0,0.7-0.28,0.74-0.66C30.72,61.35,30.43,60.97,30.02,60.92z"/><path d="M40.17,59.24c-0.21-0.35-0.68-0.47-1.03-0.25c-0.54,0.33-1.11,0.62-1.69,0.87c-0.38,0.17-0.55,0.61-0.39,0.99   c0.12,0.28,0.4,0.45,0.69,0.45c0.1,0,0.2-0.02,0.3-0.06c0.64-0.28,1.27-0.6,1.86-0.97C40.27,60.06,40.39,59.6,40.17,59.24z"/><path d="M23.58,36.57c0.53-0.35,1.09-0.68,1.66-0.98c0.37-0.19,0.51-0.65,0.31-1.01c-0.19-0.37-0.65-0.51-1.01-0.31   c-0.61,0.32-1.21,0.68-1.79,1.05c-0.35,0.23-0.44,0.69-0.21,1.04c0.14,0.22,0.38,0.34,0.63,0.34   C23.31,36.7,23.45,36.66,23.58,36.57z"/><path d="M32.57,33.41c0.65-0.06,1.3-0.09,1.96-0.11c0.41-0.01,0.74-0.36,0.72-0.77c-0.01-0.41-0.37-0.75-0.77-0.72   c-0.68,0.02-1.36,0.05-2.04,0.11c-0.41,0.04-0.72,0.4-0.68,0.81c0.03,0.39,0.36,0.68,0.75,0.68   C32.53,33.41,32.55,33.41,32.57,33.41z"/><path d="M27.63,34.48c0.08,0,0.17-0.01,0.25-0.04c0.6-0.21,1.23-0.4,1.84-0.55c0.4-0.1,0.65-0.51,0.55-0.91   c-0.1-0.4-0.5-0.65-0.91-0.55c-0.67,0.16-1.33,0.36-1.99,0.59c-0.39,0.14-0.6,0.57-0.46,0.96C27.03,34.29,27.32,34.48,27.63,34.48z   "/><path d="M21.35,37.28c-0.28-0.31-0.75-0.33-1.06-0.06c-0.51,0.46-1,0.95-1.47,1.46c-0.28,0.31-0.26,0.78,0.05,1.06   c0.14,0.13,0.32,0.2,0.51,0.2c0.2,0,0.41-0.08,0.55-0.24c0.43-0.48,0.89-0.93,1.36-1.36C21.6,38.06,21.63,37.58,21.35,37.28z"/><path d="M37.5,33.18c0.02,0,0.04,0,0.06,0c0.76-0.06,1.44-0.15,2.07-0.27c0.41-0.08,0.67-0.47,0.6-0.88   c-0.08-0.41-0.48-0.67-0.88-0.6c-0.57,0.11-1.2,0.19-1.9,0.24c-0.41,0.03-0.72,0.39-0.69,0.81C36.78,32.88,37.11,33.18,37.5,33.18z   "/></g></g><g id="SvgjsG2615" featureKey="nameRightFeature-0" transform="matrix(2.3498694985067403,0,0,2.3498694985067403,188.33942601753068,3.579631682505628)" fill="#fff"><path d="M9.44 20 l-6.18 0 l0 -15 l1.4 0 l0 13.56 l4.78 0 l0 1.44 z M17.76 16.12 c0 1.4133 -0.31666 2.4434 -0.95 3.09 s-1.6633 0.97 -3.09 0.97 c-1.3067 0 -2.2634 -0.36 -2.87 -1.08 s-0.91 -1.7133 -0.91 -2.98 l0 -7.2 c0 -1.3733 0.32334 -2.3934 0.97 -3.06 s1.6633 -1 3.05 -1 c1.32 0 2.2834 0.35 2.89 1.05 s0.91 1.69 0.91 2.97 l0 7.24 z M16.36 16.08 l-0.000019531 -7.22 c0 -0.76 -0.2 -1.3933 -0.6 -1.9 s-1.0067 -0.76 -1.82 -0.76 c-0.97334 0 -1.65 0.25334 -2.03 0.76 s-0.57 1.22 -0.57 2.14 l0 6.9 c0 0.38666 0.04334 0.75 0.13 1.09 s0.22666 0.63666 0.42 0.89 s0.44 0.45334 0.74 0.6 s0.66334 0.22 1.09 0.22 c0.93334 0 1.6067 -0.22666 2.02 -0.68 s0.62 -1.1333 0.62 -2.04 z M27.82 5 l-4.08 15 l-1.14 0 l-4.06 -15 l1.42 0 l3.2 12.32 l3.28 -12.32 l1.38 0 z M36.06 20 l-7.5 0 l0 -15 l7.36 0 l0 1.52 l-5.98 0 l0 5.16 l5.94 0 l0 1.3 l-5.94 0 l0 5.5 l6.12 0 l0 1.52 z M45.96000000000001 20 l-1.72 -0.000019531 l-3.14 -6.06 l-2.6 0 l0 6.06 l-1.34 0 l0 -15 l3.44 0 c1.3733 0 2.46 0.39334 3.26 1.18 s1.2 1.8667 1.2 3.24 c0 0.42666 -0.05666 0.86 -0.17 1.3 s-0.27668 0.85334 -0.49002 1.24 s-0.47668 0.73666 -0.79002 1.05 s-0.67 0.55668 -1.07 0.73002 z M43.64 9.32 c0 -0.46666 -0.08 -0.88664 -0.24 -1.26 s-0.38 -0.69 -0.66 -0.95 s-0.61334 -0.46 -1 -0.6 s-0.80666 -0.21 -1.26 -0.21 l-1.98 0 l0 6.26 l2.1 0 c1.0667 0 1.84 -0.28666 2.32 -0.86 s0.72 -1.3667 0.72 -2.38 z"/></g>
			</g>
		</svg>
	