
        <svg xmlns="http://www.w3.org/2000/svg" xmlns:xlink="http://www.w3.org/1999/xlink" version="1.1" width="3149.2726885695915" height="596.0626056139838" viewBox="0 0 3149.2726885695915 596.0626056139838">
			
			<g transform="scale(7.463634428479585) translate(10, 10)">
				<defs id="SvgjsDefs3596"/><g id="SvgjsG3597" featureKey="nameLeftFeature-0" transform="matrix(2.3754859355409805,0,0,2.3754859355409805,-2.850583235921173,-0.2529156132458823)" fill="#fff"><path d="M9.72 6 l3.22 0 l0 14 l-3.22 0 l0 -5.54 l-5.3 0 l0 5.54 l-3.22 0 l0 -14 l3.22 0 l0 5.5 l5.3 0 l0 -5.5 z M18.560000000000002 17.04 l5.74 0 l0 2.96 l-6.14 0 l-2.82 0 l0 -14 l3.22 0 l5.56 0 l0 2.96 l-5.56 0 l0 2.54 l4.16 0 l0 2.9 l-4.16 0 l0 2.64 z M35.42 6 l3.22 0 l0 14 l-2.46 0 l-6.56 -8.14 l0 8.14 l-3.22 0 l0 -14 l2.5 0 l6.52 8.14 l0 -8.14 z M50.06 6 l3.22 0 l0 14 l-2.46 0 l-6.56 -8.14 l0 8.14 l-3.22 0 l0 -14 l2.5 0 l6.52 8.14 l0 -8.14 z M66.84 20 l-0.98 -2.32 l-6.58 0 l-0.98 2.32 l-3.42 0 l6.22 -14 l2.94 0 l6.22 14 l-3.42 0 z M60.400000000000006 15.059999999999999 l4.36 0 l-2.18 -5.16 z"/></g><g id="SvgjsG3598" featureKey="inlineSymbolFeature-0" transform="matrix(1.0321076823384951,0,0,1.0321076823384951,174.71103085895354,-3.0963230470154857)" fill="#fff"><g xmlns="http://www.w3.org/2000/svg"><polygon points="19.875,14.345 20.24,17.026 22.729,17.855 23.93,16.656 23.477,13.938 22.271,15.145  "/><path d="M15.798,29l-2.696-4.043C12.703,24.357,12.034,24,11.314,24h-0.166C9.964,24,9,24.964,9,26.148   c0,0.38,0.102,0.755,0.293,1.084L11.491,31h2.974L15.798,29z"/><path d="M19.574,12.137l2.156,0.718l1.343-1.342L22.391,7.42C22.253,6.598,21.54,6,20.694,6c-0.498,0-0.908,0.17-1.217,0.479   S19,7.197,19,7.633v0.184c0,0.077,0.005,0.153,0.016,0.229L19.574,12.137z"/><polygon points="15.501,37.874 15.787,36.728 14.669,36.448  "/><polygon points="18.557,43.114 18.832,41.739 17.571,41.424  "/><rect x="30" y="14" width="4" height="2"/><path d="M34,18h-4v5h4V18z M33,21h-2v-2h2V21z"/><path d="M44.786,9.351l0.195-1.3C44.994,7.964,45,7.882,45,7.798C45,6.769,44.229,6,43.281,6c-0.857,0-1.529,0.569-1.66,1.354   l-0.229,1.373l1.755,1.17L44.786,9.351z"/><polygon points="44.028,14.402 44.453,11.57 42.853,12.104 41.032,10.89 40.547,13.799 42.363,14.912  "/><path d="M34,5c0-1.103-0.897-2-2-2s-2,0.897-2,2v7h4V5z"/><path d="M42,55h-2v-6.586l-2-2V51h-2v-6.586l-2-2V48h-2v-5.586l-2,2V51h-2v-4.586l-2,2V55h-2v-4.586l-1,1V61h20v-9.586l-1-1V55z    M26,59h-2v-2h2V59z M30,55h-2v-2h2V55z M34,52h-2v-2h2V52z M38,55h-2v-2h2V55z M42,59h-2v-2h2V59z"/><path d="M36,36h-0.031c0.393,0.292,0.739,0.638,1.031,1.031V37h0.407c0.81-0.828,1.348-1.852,1.561-2.968   c-1.115,0.213-2.139,0.751-2.968,1.56V36z"/><path d="M29,37v0.031c0.292-0.393,0.638-0.739,1.031-1.031H30v-0.407c-0.828-0.81-1.852-1.348-2.968-1.561   c0.213,1.115,0.751,2.139,1.56,2.968H29z"/><path d="M28.051,39.294l-0.289-0.289c-1.138,0.013-2.256,0.364-3.194,0.995c0.957,0.644,2.1,1,3.261,1h0.273   C28.035,40.674,28,40.34,28,40c0-0.25,0.038-0.489,0.074-0.729L28.051,39.294z"/><path d="M33,31.567c-0.631,0.939-0.982,2.056-0.995,3.195l0.289,0.289l-0.023,0.023C32.511,35.038,32.75,35,33,35   s0.489,0.038,0.729,0.074l-0.023-0.023l0.289-0.289C33.982,33.624,33.631,32.506,33,31.567z"/><path d="M30,40c0,0.454,0.11,0.888,0.3,1.286L30.586,41c1.289-1.289,3.539-1.289,4.828,0l0.286,0.286C35.89,40.888,36,40.454,36,40   c0-1.654-1.346-3-3-3S30,38.346,30,40z"/><polygon points="49.873,35.511 50.357,33.94 49.342,34.447  "/><path d="M53.528,17c-0.562,0-1.066,0.312-1.317,0.813l-0.831,1.661l3.052,1.221l0.503-1.634C54.978,18.921,55,18.774,55,18.628   v-0.156C55,17.66,54.34,17,53.528,17z"/><path d="M46.235,29.765C45.854,30.526,45.088,31,44.236,31C43.003,31,42,29.997,42,28.764v-0.672c0-0.108,0.009-0.218,0.024-0.326   l1.675-11.172l-1.614,0.494l-1.894-1.161L38.137,28.26C37.969,29.269,37.105,30,36.083,30C34.935,30,34,29.065,34,27.917V25h-4   v2.917C30,29.065,29.065,30,27.917,30c-1.022,0-1.886-0.729-2.053-1.734l-1.531-9.185l-1.063,1.064l-2.729-0.91l1.438,10.543   C21.993,29.883,22,29.984,22,30.089v0.608C22,31.967,20.967,33,19.697,33c-0.772,0-1.488-0.384-1.916-1.026L17,30.802L15.535,33   h-2.878l0.604,1.035l4.952,1.237l-1.001,4l3.956,0.988l-1.092,5.457l2.134,3.658L28.586,43h-0.758   c-2.061,0-4.078-0.836-5.535-2.293L21.586,40l0.707-0.707c1.065-1.065,2.431-1.794,3.894-2.111   c-0.816-1.256-1.258-2.72-1.258-4.253v-1h1c1.533,0,2.997,0.442,4.253,1.258c0.317-1.462,1.046-2.829,2.111-3.894L33,28.586   l0.707,0.707c1.065,1.065,1.794,2.431,2.111,3.894c1.256-0.816,2.72-1.258,4.253-1.258h1v1c0,1.533-0.442,2.997-1.258,4.253   c1.462,0.317,2.828,1.046,3.894,2.111L44.414,40l-0.707,0.707C42.25,42.164,40.232,43,38.172,43h-0.758l6.43,6.43l1.706-2.559   c0.557-0.836,1.038-1.714,1.455-2.623l-2.348-4.695l4-2l-2-4l4.512-2.256l2.672-8.683l-3.359-1.344L46.235,29.765z M52,26h-2v-2h2   V26z"/><polygon points="47.969,41.701 48.539,39.849 47.342,40.447  "/><path d="M38.172,41c1.161,0,2.304-0.356,3.261-1c-0.939-0.631-2.056-0.982-3.195-0.995l-0.289,0.289l-0.023-0.023   C37.962,39.511,38,39.75,38,40c0,0.34-0.035,0.674-0.101,1H38.172z"/></g></g><g id="SvgjsG3599" featureKey="nameRightFeature-0" transform="matrix(2.309500123337997,0,0,2.309500123337997,234.3715995524686,0.604898844137427)" fill="#fff"><path d="M10.42 17.04 l5.32 0 l0 2.96 l-8.54 0 l0 -14 l3.22 0 l0 11.04 z M24.72 5.800000000000001 c3.96 0 7.28 2.94 7.28 7.2 s-3.32 7.2 -7.28 7.2 s-7.28 -2.94 -7.28 -7.2 s3.32 -7.2 7.28 -7.2 z M24.72 17.18 c2.26 0 3.94 -1.76 3.94 -4.18 s-1.68 -4.18 -3.94 -4.18 s-3.92 1.76 -3.92 4.18 s1.66 4.18 3.92 4.18 z M45.28 6 l3.42 0 l-6.22 14 l-2.94 0 l-6.22 -14 l3.42 0 l4.28 10.1 z M53.52 17.04 l5.74 0 l0 2.96 l-6.14 0 l-2.82 0 l0 -14 l3.22 0 l5.56 0 l0 2.96 l-5.56 0 l0 2.54 l4.16 0 l0 2.9 l-4.16 0 l0 2.64 z M69.16 20 l-2.86 -4.58 l-1.72 0 l0 4.58 l-3.22 0 l0 -14 l4.98 0 c3.14 0 5.22 1.9 5.22 4.82 c0 1.86 -0.88 3.26 -2.36 3.98 l3.36 5.2 l-3.4 0 z M64.58 8.96 l0 3.72 l1.56 0 c1.3 0 2.2 -0.46 2.2 -1.86 c0 -1.38 -0.9 -1.86 -2.2 -1.86 l-1.56 0 z"/></g>
			</g>
		</svg>
	